<svg xmlns="http://www.w3.org/2000/svg" viewBox="0 0 362.9 99.21"><defs><style>.cls-1{fill:#150e3b;}.cls-2{fill:#459ed7;}</style></defs><title>Nautilus Horizontal</title><g id="Layer_2" data-name="Layer 2"><g id="Layer_1-2" data-name="Layer 1"><path class="cls-1" d="M181.58,45.54V25.6h4.49v28h-3.41L166.77,33.85V53.63h-4.53v-28h3.45Z"/><path class="cls-1" d="M212.53,47.74H197.35l-2.64,5.89H190l12.57-28h4.88l12.58,28h-4.77ZM205,30.33,199,43.66h11.85Z"/><path class="cls-1" d="M246.16,25.64V42c0,8.25-5.45,12.37-12.21,12.13C227.7,54,222.38,50,222.38,42V25.64h4.44V42c0,5.08,3,7.85,7.13,8,4.48.24,7.76-2.69,7.76-8V25.64Z"/><path class="cls-1" d="M259.21,29.65H250v-4h22.9v4h-9.17v24h-4.52Z"/><path class="cls-1" d="M277.1,53.63v-28h4.45v28Z"/><path class="cls-1" d="M293.08,25.6V49.47h14.77v4.16H288.59v-28Z"/><path class="cls-1" d="M334.84,25.64V42c0,8.25-5.45,12.37-12.22,12.13C316.38,54,311.05,50,311.05,42V25.64h4.45V42c0,5.08,3,7.85,7.12,8,4.49.24,7.77-2.69,7.77-8V25.64Z"/><path class="cls-1" d="M358.26,31.81c-1.32-1.92-4-3.08-6.93-3.12-3.76,0-6.49,1.56-6.49,4.24s3.13,3.48,6.81,4c5.77.81,11.25,2.41,11.25,8.69s-5.76,8.65-11.61,8.65c-5.36,0-9.49-1.64-12.05-6.37l3.36-2.24a9.7,9.7,0,0,0,8.73,4.61c3.36,0,7.09-1.12,7.09-4.65,0-3-3.25-4.08-7.17-4.6-5.56-.76-10.85-2.16-10.85-8.17,0-5.8,5.77-8,10.81-8,4,0,8.09,1,10.45,4.73Z"/><path class="cls-1" d="M165.79,64.94h-3.55V63.38h8.81v1.56h-3.52v9.22h-1.74Z"/><path class="cls-1" d="M183.09,74.16h-8V63.38h7.92v1.68h-6.19V68h5.94v1.6h-5.94v2.9h6.23Z"/><path class="cls-1" d="M196.74,72.78a5.66,5.66,0,0,1-4.05,1.6A5.28,5.28,0,0,1,187,68.85a5.39,5.39,0,0,1,5.68-5.65,5.51,5.51,0,0,1,3.94,1.63l-1.15,1.11a4,4,0,0,0-2.79-1.11,3.78,3.78,0,0,0-4,4,3.71,3.71,0,0,0,4,3.92,4.14,4.14,0,0,0,2.86-1.17Z"/><path class="cls-1" d="M208.38,74.16V69.68h-5.7v4.48H201V63.38h1.72v4.7h5.7v-4.7h1.71V74.16Z"/><path class="cls-1" d="M222.7,71.05V63.38h1.73V74.16h-1.31L217,66.56v7.6h-1.74V63.38h1.33Z"/><path class="cls-1" d="M240,68.82a5.51,5.51,0,1,1-11,0,5.39,5.39,0,0,1,5.54-5.66C238.16,63.2,240,65.91,240,68.82Zm-5.51,4c2.68,0,3.81-1.9,3.81-4a3.79,3.79,0,0,0-3.78-4.1c-2.49,0-3.83,1.74-3.83,4.1A3.71,3.71,0,0,0,234.45,72.81Z"/><path class="cls-1" d="M246.2,63.38v9.18h5.68v1.6h-7.4V63.38Z"/><path class="cls-1" d="M266.08,68.82a5.51,5.51,0,1,1-11,0,5.39,5.39,0,0,1,5.54-5.66C264.28,63.2,266.08,65.91,266.08,68.82Zm-5.51,4c2.68,0,3.8-1.9,3.8-4a3.79,3.79,0,0,0-3.77-4.1c-2.49,0-3.83,1.74-3.83,4.1A3.71,3.71,0,0,0,260.57,72.81Z"/><path class="cls-1" d="M278.51,65.86a4.32,4.32,0,0,0-2.91-1.15,3.87,3.87,0,0,0-4,4.17,3.67,3.67,0,0,0,4,3.88,3.86,3.86,0,0,0,2.63-1V69.62h-3V68.08h4.6V72.5a5.39,5.39,0,0,1-4.23,1.88c-4,0-5.67-2.63-5.67-5.5a5.43,5.43,0,0,1,5.67-5.76,5.69,5.69,0,0,1,4,1.63Z"/><path class="cls-1" d="M284.5,74.16V63.38h1.71V74.16Z"/><path class="cls-1" d="M299.35,74.16h-8V63.38h7.92v1.68h-6.19V68h5.94v1.6h-5.94v2.9h6.24Z"/><path class="cls-1" d="M310.46,65.77a3.24,3.24,0,0,0-2.66-1.2c-1.45,0-2.49.6-2.49,1.63s1.2,1.34,2.61,1.54c2.22.31,4.33.93,4.33,3.34s-2.22,3.33-4.47,3.33c-2.06,0-3.64-.63-4.63-2.45l1.29-.86a3.73,3.73,0,0,0,3.36,1.77c1.29,0,2.73-.43,2.73-1.79,0-1.17-1.25-1.57-2.76-1.77-2.14-.29-4.17-.83-4.17-3.14s2.21-3.09,4.15-3.09a4.4,4.4,0,0,1,4,1.81Z"/><path class="cls-2" d="M95.73,31.35a29,29,0,0,1-7-1.19,29.08,29.08,0,0,1-12.3-7.35l0,0a37.95,37.95,0,1,0,6.31,45.29,2.77,2.77,0,0,0-1.73-4L80.69,64a2.78,2.78,0,0,0-3.14,1.35,32.05,32.05,0,1,1-5.27-38.38l0,0,0,0a35,35,0,0,0,12.26,8,35.59,35.59,0,0,0,6.81,1.85,36.19,36.19,0,0,0,6.24.46A35.12,35.12,0,0,0,119.88,29a2.78,2.78,0,0,0,.16-4.09l-.2-.21a2.77,2.77,0,0,0-3.74-.16A29.29,29.29,0,0,1,95.73,31.35Z"/><path class="cls-2" d="M92.82,42.86a39.51,39.51,0,0,1-6.09-1.11A41.1,41.1,0,0,1,80,39.35a41.09,41.09,0,0,1-11-7.44l0,0h0c-.27-.24-.53-.5-.8-.76l0,0,0,0a26.28,26.28,0,1,0,0,37.15,25.8,25.8,0,0,0,3.25-3.93,2.8,2.8,0,0,0-1.12-4.11L70,60a2.79,2.79,0,0,0-3.47,1,20.6,20.6,0,0,1-9.12,7.47A20.4,20.4,0,1,1,64,35.18l0,0,0,0a46.06,46.06,0,0,0,7.26,5.93c1.23.82,2.5,1.57,3.79,2.26a46.42,46.42,0,0,0,6.35,2.8,45.51,45.51,0,0,0,6,1.69,46,46,0,0,0,5.83.85,44.25,44.25,0,0,0,5.87.12,46.72,46.72,0,0,0,29-11.66,2.77,2.77,0,0,0,.09-4l-.16-.17a2.8,2.8,0,0,0-3.83-.09A41,41,0,0,1,98.78,43.07,39.55,39.55,0,0,1,92.82,42.86Z"/><path class="cls-2" d="M136.62,41.47l-.22-.22a2.78,2.78,0,0,0-3.84-.08A52.47,52.47,0,0,1,99,54.72a50.58,50.58,0,0,1-5.9-.13,50.39,50.39,0,0,1-5.74-.77,2.74,2.74,0,0,1-.37-.08l-.36-.07-1.3-.29c-.62-.14-1.23-.3-1.84-.46l-.85-.24-1-.29a51,51,0,0,1-5.67-2.12c-1-.44-2-.91-3-1.41s-2.06-1.12-3.07-1.73a52.26,52.26,0,0,1-9.35-7.25l0,0c-.19-.16-.36-.34-.54-.52l0,0a14.62,14.62,0,1,0,1.17,19.25,2.78,2.78,0,0,0-.64-4l-.26-.18a2.72,2.72,0,0,0-3.71.51,8.73,8.73,0,1,1-.75-11.49l0,0,.25.27,0,0a57.88,57.88,0,0,0,8.11,6.68,58.86,58.86,0,0,0,5.4,3.28q1.34.72,2.7,1.35T75,56.27a55.51,55.51,0,0,0,5.47,1.92q2.83.84,5.72,1.39t5.78.8a54.88,54.88,0,0,0,6,.22,58.37,58.37,0,0,0,38.54-15.12A2.77,2.77,0,0,0,136.62,41.47Z"/><path class="cls-2" d="M92.59,65.94l-.38,0a2.75,2.75,0,0,0-2.72,1.62,43.76,43.76,0,1,1-9-48.84l0,0,.1-.1a23.32,23.32,0,0,0,12,6.43,23.5,23.5,0,0,0,18.68-4.33,2.79,2.79,0,0,0,.31-4.2l-.11-.1a2.79,2.79,0,0,0-3.66-.23,17.74,17.74,0,0,1-22.65-1c-.21-.18-.4-.37-.59-.55l0,0A49.59,49.59,0,1,0,82,87.19a50,50,0,0,0,13-17.37A2.78,2.78,0,0,0,92.59,65.94Z"/></g></g></svg>